<svg width="453" height="456" viewBox="0 0 453 456" fill="none" xmlns="http://www.w3.org/2000/svg">
<path fill-rule="evenodd" clip-rule="evenodd" d="M167.559 7.84078C214.337 -4.63589 263.13 -0.613923 309.082 14.6273C356.005 30.1901 403.523 52.7127 429.559 94.739C455.118 135.994 458.16 188.792 446.106 235.801C435.416 277.488 395.576 301.56 368.042 334.633C341.824 366.126 324.989 405.376 288.85 424.691C247.114 446.998 197.234 465.606 152.643 449.756C108.016 433.893 88.8869 383.754 62.6805 344.3C36.8152 305.359 4.40003 268.648 1.36123 221.998C-1.84074 172.844 15.5813 123.769 45.78 84.8557C75.9655 45.9594 119.988 20.529 167.559 7.84078Z" fill="url(#paint0_linear_1_1461)"/>
<defs>
<linearGradient id="paint0_linear_1_1461" x1="15.9744" y1="281.787" x2="452.593" y2="154.744" gradientUnits="userSpaceOnUse">
<stop stop-color="#D9A7C7"/>
<stop offset="1" stop-color="#FFFCDC"/>
</linearGradient>
</defs>
</svg>
